<svg xmlns="http://www.w3.org/2000/svg" viewBox="0 0 64 64">
	<rect width="64" height="64" rx="14" fill="#03050d" />
	<rect x=".75" y=".75" width="62.5" height="62.5" rx="13.25" fill="none" stroke="#f6f1e5" stroke-opacity=".16" stroke-width="1.5" />

	<!-- The two Testaments meet at the center of an open Bible. -->
	<path d="M8.5 17.5c8.8-2.1 16.1-.3 22 5.2v29.8c-5.8-4.4-13.1-6.1-22-4.2z" fill="#201b12" stroke="#efc16f" stroke-linejoin="round" stroke-width="3" />
	<path d="M55.5 17.5c-8.8-2.1-16.1-.3-22 5.2v29.8c5.8-4.4 13.1-6.1 22-4.2z" fill="#101c26" stroke="#89c8ee" stroke-linejoin="round" stroke-width="3" />
	<path d="M32 23v29.5" fill="none" stroke="#f6f1e5" stroke-linecap="round" stroke-width="3" />

	<!-- Linked points suggest the cross-reference network drawn across its pages. -->
	<path d="m15.5 27 8 8-7 6M48.5 27l-8 8 7 6" fill="none" stroke="#f6f1e5" stroke-linecap="round" stroke-linejoin="round" stroke-opacity=".72" stroke-width="2" />
	<circle cx="15.5" cy="27" r="2.5" fill="#fff1bd" />
	<circle cx="23.5" cy="35" r="2.5" fill="#fff1bd" />
	<circle cx="16.5" cy="41" r="2.5" fill="#fff1bd" />
	<circle cx="48.5" cy="27" r="2.5" fill="#b9e3fa" />
	<circle cx="40.5" cy="35" r="2.5" fill="#b9e3fa" />
	<circle cx="47.5" cy="41" r="2.5" fill="#b9e3fa" />
</svg>
